<?xml version="1.0" encoding="UTF-8"?>
<svg version="1.1" xmlns="http://www.w3.org/2000/svg" width="557" height="417">
<path d="M0 0 C183.81 0 367.62 0 557 0 C557 137.61 557 275.22 557 417 C373.19 417 189.38 417 0 417 C0 279.39 0 141.78 0 0 Z " fill="#F7F7F7" transform="translate(0,0)"/>
<path d="M0 0 C1.39334312 -0.01051392 1.39334312 -0.01051392 2.81483459 -0.02124023 C5.8860563 -0.03884816 8.95635677 -0.02718639 12.02758789 -0.01367188 C14.16223833 -0.01636621 16.29688758 -0.02024814 18.43153381 -0.02526855 C22.90629761 -0.0311676 27.38074207 -0.02258822 31.85546875 -0.00390625 C37.59017107 0.01886947 43.32412404 0.00577116 49.05879879 -0.01819611 C53.46746967 -0.03265474 57.87596311 -0.02804749 62.28463936 -0.01768494 C64.39894258 -0.01501713 66.51326192 -0.0182893 68.62754631 -0.02760315 C71.58416231 -0.03776801 74.53956785 -0.0222674 77.49609375 0 C78.36950409 -0.00809692 79.24291443 -0.01619385 80.14279175 -0.02453613 C84.03426909 0.02972986 86.36707841 0.28235797 89.85955811 2.12567139 C92.47202722 5.32494804 92.41783611 7.19949787 92.38037109 11.30566406 C92.38110123 11.97924454 92.38183136 12.65282501 92.38258362 13.34681702 C92.37910907 15.56602438 92.340261 17.78311407 92.30102539 20.00195312 C92.29169662 21.54322157 92.28458081 23.08450487 92.27958679 24.62579346 C92.26052151 28.67695249 92.21142619 32.72721116 92.15606689 36.77801514 C92.10486342 40.91373515 92.08207049 45.04960106 92.05688477 49.18554688 C92.00330573 57.29663654 91.91800013 65.40699525 91.81274414 73.51757812 C92.61494385 73.50710449 93.41714355 73.49663086 94.24365234 73.48583984 C97.87081786 73.44432045 101.49793342 73.4182647 105.12524414 73.39257812 C106.38788086 73.37582031 107.65051758 73.3590625 108.95141602 73.34179688 C110.76416016 73.33212891 110.76416016 73.33212891 112.61352539 73.32226562 C113.72896729 73.31179199 114.84440918 73.30131836 115.99365234 73.29052734 C118.81274414 73.51757812 118.81274414 73.51757812 121.81274414 75.51757812 C122.12524414 79.01757812 122.12524414 79.01757812 121.81274414 82.51757812 C119.23568469 85.09463757 118.2405654 84.77239973 114.65711975 84.78500366 C113.01873894 84.79779861 113.01873894 84.79779861 111.34725952 84.81085205 C110.1435672 84.80994568 108.93987488 84.80903931 107.69970703 84.80810547 C106.43626968 84.81482269 105.17283234 84.82153992 103.87110901 84.82846069 C100.40004306 84.84615964 96.92907565 84.85081768 93.45796895 84.85209227 C90.56273332 84.85398908 87.66752076 84.86134405 84.77229398 84.86843646 C77.94307347 84.88473261 71.11390569 84.88960427 64.28466797 84.88818359 C57.23408004 84.88698164 50.18379799 84.90809099 43.13328749 84.93967092 C37.08482801 84.96579962 31.03646864 84.97655234 24.98795313 84.97527277 C21.37328407 84.97476215 17.75888674 84.98050002 14.14427376 85.00162888 C10.1143608 85.02454145 6.08513561 85.01551142 2.05517578 85.00341797 C0.25267365 85.02027649 0.25267365 85.02027649 -1.58624268 85.03747559 C-3.22885323 85.02489212 -3.22885323 85.02489212 -4.90464783 85.01205444 C-6.33460036 85.01368875 -6.33460036 85.01368875 -7.79344082 85.01535606 C-10.18725586 84.51757812 -10.18725586 84.51757812 -11.99318886 82.69538307 C-13.70244783 79.57794272 -13.61391882 76.6159774 -13.59130859 73.15039062 C-13.60160347 72.04724518 -13.60160347 72.04724518 -13.61210632 70.92181396 C-13.63038098 68.49520465 -13.6265365 66.06924137 -13.62084961 63.64257812 C-13.62541074 61.95393666 -13.63071611 60.26529706 -13.63673401 58.57666016 C-13.64566612 55.03931125 -13.64324049 51.50218811 -13.63330078 47.96484375 C-13.62180418 43.43172354 -13.64203217 38.8993815 -13.67121792 34.36636353 C-13.6895622 30.87991386 -13.68929115 27.39365134 -13.6835804 23.90716553 C-13.683427 22.23580838 -13.68948656 20.5644387 -13.70187187 18.89312744 C-13.71674926 16.55650963 -13.70613094 14.22133814 -13.68896484 11.88476562 C-13.69863281 11.19477478 -13.70830078 10.50478394 -13.71826172 9.79388428 C-13.67111912 6.72973631 -13.31505108 4.73052733 -11.73010254 2.08947754 C-7.89602165 -0.28061797 -4.42664007 -0.04094214 0 0 Z " fill="#29292A" transform="translate(125.187255859375,85.482421875)"/>
<path d="M0 0 C0.94025528 -0.00861557 1.88051056 -0.01723114 2.84925842 -0.02610779 C5.95772821 -0.04881341 9.06529991 -0.04202071 12.17382812 -0.03295898 C14.33329538 -0.03819229 16.49276034 -0.04446769 18.65222168 -0.05174255 C23.17825069 -0.0621551 27.70396546 -0.05757252 32.22998047 -0.04296875 C38.03439111 -0.02577457 43.83781249 -0.04928018 49.64211273 -0.08445835 C54.10136494 -0.10640161 58.56037928 -0.10499836 63.01966858 -0.09669304 C65.15992824 -0.09587194 67.30020509 -0.1027655 69.44041443 -0.11746407 C72.43095013 -0.13485408 75.41969323 -0.12041355 78.41015625 -0.09765625 C79.2965126 -0.10934845 80.18286896 -0.12104065 81.09608459 -0.13308716 C85.21088757 -0.06926912 87.05023809 -0.0265043 90.25762939 2.71612549 C91.87111493 5.85662218 92.19090017 7.72865544 92.15917969 11.24169922 C92.15887756 12.36248367 92.15857544 13.48326813 92.15826416 14.63801575 C92.13761902 15.83714096 92.11697388 17.03626617 92.09570312 18.27172852 C92.09004333 19.50763229 92.08438354 20.74353607 92.07855225 22.01689148 C92.05998097 25.29036324 92.02409167 28.56303805 91.97973633 31.83624268 C91.93869516 35.18119975 91.92086401 38.52619163 91.90039062 41.87133789 C91.85631245 48.42568496 91.78939047 54.97950095 91.70507812 61.53344727 C87.98808305 60.32290965 84.34358832 59.03206238 80.72851562 57.54516602 C79.81634277 57.17061279 78.90416992 56.79605957 77.96435547 56.41015625 C77.01254395 56.01771729 76.06073242 55.62527832 75.08007812 55.22094727 C73.604021 54.61972046 73.604021 54.61972046 72.09814453 54.00634766 C63.87467385 50.64726435 63.87467385 50.64726435 60.01757812 48.83032227 C53.34018196 45.74025064 47.07236893 43.86005083 39.70507812 45.53344727 C36.62968027 47.34182728 35.08907783 49.25739734 33.70507812 52.53344727 C32.4415983 59.19641355 34.26191677 64.36671811 36.70507812 70.53344727 C37.28158693 72.06074199 37.85441241 73.58943139 38.42382812 75.11938477 C38.71507568 75.90055664 39.00632324 76.68172852 39.30639648 77.48657227 C46.70507812 97.42542635 46.70507812 97.42542635 46.70507812 102.53344727 C44.15672664 103.80762301 42.32993445 103.68130083 39.47680664 103.71044922 C37.83984581 103.72970207 37.83984581 103.72970207 36.16981506 103.74934387 C34.98649094 103.7567308 33.80316681 103.76411774 32.58398438 103.77172852 C31.37314682 103.77980026 30.16230927 103.78787201 28.91477966 103.79618835 C26.35002071 103.81003618 23.78524328 103.82075519 21.22045898 103.82861328 C17.28724608 103.84586102 13.35486588 103.88974662 9.421875 103.93383789 C6.93425099 103.9439613 4.44661982 103.9524785 1.95898438 103.95922852 C0.18703453 103.98549065 0.18703453 103.98549065 -1.62071228 104.01228333 C-2.71517166 104.00935776 -3.80963104 104.00643219 -4.93725586 104.00341797 C-5.90163071 104.00928421 -6.86600555 104.01515045 -7.85960388 104.02119446 C-10.29492188 103.53344727 -10.29492188 103.53344727 -12.10452271 102.0735321 C-13.90657113 98.22830438 -13.72075504 94.62011461 -13.69897461 90.42211914 C-13.70583786 89.501371 -13.71270111 88.58062286 -13.71977234 87.63197327 C-13.73807327 84.58855773 -13.73419847 81.54565601 -13.72851562 78.50219727 C-13.7330755 76.38757153 -13.73838049 74.27294728 -13.74440002 72.1583252 C-13.75333736 67.72650125 -13.75090047 63.29485745 -13.7409668 58.86303711 C-13.72947036 53.17982726 -13.74969609 47.4972381 -13.77888393 41.8141098 C-13.79721617 37.44753054 -13.79695951 33.08110088 -13.79124641 28.7144928 C-13.79109287 26.61889271 -13.79716465 24.52328268 -13.80953789 22.42771912 C-13.82439148 19.49967306 -13.81381253 16.57278484 -13.79663086 13.64477539 C-13.80629883 12.77712051 -13.8159668 11.90946564 -13.82592773 11.01551819 C-13.78176894 7.42744108 -13.64571241 5.14681682 -11.84449768 1.99732971 C-7.96356098 -0.2309763 -4.40434681 -0.0324274 0 0 Z " fill="#2A2B2B" transform="translate(298.294921875,214.466552734375)"/>
<path d="M0 0 C0.66488085 6.09474115 0.66488085 6.09474115 -1.24658203 8.69726562 C-3.45240066 10.33611945 -4.69915295 10.38147303 -7.4296875 10.40625 C-8.30109375 10.4259082 -9.1725 10.44556641 -10.0703125 10.46582031 C-11.45863281 10.48273926 -11.45863281 10.48273926 -12.875 10.5 C-33.60950162 11.14091021 -52.80039881 17.84147918 -69 31 C-69.96164062 31.76570313 -70.92328125 32.53140625 -71.9140625 33.3203125 C-76.2708609 36.84682632 -80.41754395 40.23358537 -84.05859375 44.5078125 C-89.87299955 51.30125987 -96.39271597 57.44676791 -102.74804688 63.72753906 C-111.31917675 72.20363375 -111.31917675 72.20363375 -119.39355469 81.14892578 C-135.44162662 99.64079225 -155.43785765 116.80799798 -180.765625 119.3828125 C-194.98918055 119.82181113 -206.65089813 115.5118264 -218 107 C-220.9754409 104.19986374 -223.53808266 101.25608422 -226 98 C-227.11375 96.5459375 -227.11375 96.5459375 -228.25 95.0625 C-228.8275 94.051875 -229.405 93.04125 -230 92 C-230.556875 91.06607422 -230.556875 91.06607422 -231.125 90.11328125 C-236.50401872 79.41127526 -235.55848769 64.83459777 -231.875 53.6875 C-229.70152326 48.06707282 -227.64453861 43.8862466 -223 40 C-218.80896839 39.26040619 -217.56038041 39.62641306 -214 42 C-213.44528808 47.63957123 -213.87315446 50.25182715 -217 55 C-221.23132336 64.18692731 -221.30527234 74.16359841 -218.0390625 83.6875 C-213.85166536 93.00681995 -206.37535339 99.33932726 -197.11328125 103.23828125 C-186.1588102 107.18675048 -175.35160733 105.44305162 -164.94140625 100.9453125 C-151.0186437 94.36982465 -138.68212231 82.85525599 -128.74609375 71.2578125 C-123.67983953 65.37300554 -118.06839471 60.01113178 -112.54296875 54.56347656 C-107.34776408 49.43478732 -102.24877473 44.28252219 -97.49804688 38.73388672 C-79.82213565 18.27522936 -29.64909305 -19.76606203 0 0 Z " fill="#2D2D2D" transform="translate(347,140)"/>
<path d="M0 0 C4.63264893 0.12122429 8.18000462 1.59034172 12.30859375 3.578125 C13.35781006 4.06019409 13.35781006 4.06019409 14.42822266 4.55200195 C15.80408823 5.18498956 17.17727283 5.82384571 18.54736328 6.46923828 C20.76721789 7.51467985 23.00341 8.52020922 25.24609375 9.515625 C25.92414063 9.81855469 26.6021875 10.12148438 27.30078125 10.43359375 C30.47639572 11.80569887 33.69661588 13.06185647 36.9140625 14.33203125 C39.19847267 15.25814348 41.44038101 16.2444916 43.68359375 17.265625 C47.3407622 18.91975066 51.05008007 20.35728264 54.80859375 21.765625 C59.74904658 23.63700865 64.41035832 25.77604516 69.09765625 28.203125 C71.83148435 29.55594715 74.61150053 30.61432742 77.48046875 31.640625 C85.65680804 34.61383929 85.65680804 34.61383929 87.37109375 36.328125 C87.83424046 40.72801879 87.83424046 40.72801879 86.1574707 42.90063477 C83.98459139 44.63697826 82.23711136 45.1325682 79.5390625 45.79296875 C78.10300659 46.15310059 78.10300659 46.15310059 76.63793945 46.52050781 C75.62175537 46.76639648 74.60557129 47.01228516 73.55859375 47.265625 C72.52500732 47.53084961 71.4914209 47.79607422 70.42651367 48.06933594 C65.92645834 49.22361085 61.43393848 50.33846514 56.87890625 51.25390625 C50.62300322 52.44636483 50.62300322 52.44636483 45.8515625 56.26953125 C44.75548413 58.92020683 44.08441035 61.54975685 43.37109375 64.328125 C42.39824309 66.84402491 41.40266417 69.33703872 40.37109375 71.828125 C39.85363893 73.11384841 39.33798414 74.40029788 38.82421875 75.6875 C38.3446875 76.88890625 37.86515625 78.0903125 37.37109375 79.328125 C36.9740625 80.34390625 36.57703125 81.3596875 36.16796875 82.40625 C35.64976562 83.72882813 35.64976562 83.72882813 35.12109375 85.078125 C34.8271875 85.83609375 34.53328125 86.5940625 34.23046875 87.375 C33.37109375 89.328125 33.37109375 89.328125 31.37109375 92.328125 C28.93359375 92.828125 28.93359375 92.828125 26.37109375 92.328125 C23.87810947 88.80710596 22.45842502 85.13811674 21.05859375 81.078125 C20.62804687 79.84449219 20.1975 78.61085938 19.75390625 77.33984375 C19.29268623 76.00270158 18.83175613 74.66545938 18.37109375 73.328125 C17.39690361 70.51387177 16.41765186 67.70144293 15.43359375 64.890625 C15.18246826 64.17285889 14.93134277 63.45509277 14.67260742 62.71557617 C13.0246533 58.05206025 11.24424472 53.46835165 9.37109375 48.890625 C6.84495424 42.68711053 4.69188579 36.41872912 2.63427734 30.04614258 C0.57270564 23.73419516 -1.88801135 17.65326709 -4.52734375 11.5625 C-5.66572598 8.220016 -6.00330922 5.82929871 -5.62890625 2.328125 C-3.62890625 0.328125 -3.62890625 0.328125 0 0 Z " fill="#2A2B2B" transform="translate(344.62890625,266.671875)"/>
<path d="M0 0 C5.56713933 3.83604345 9.39024495 9.15896127 10.67578125 15.84375 C11.60998844 23.68197615 10.88135077 29.1447737 6.3828125 35.71875 C2.50418689 40.54706197 -2.1545113 44.44885962 -8.32421875 45.84375 C-16.20759459 46.61423489 -23.87778697 46.98286344 -30.32421875 41.84375 C-36.43423892 35.94345592 -40.37345101 29.76094827 -40.63671875 21.15625 C-40.5124054 13.46012349 -37.7638184 8.06697955 -32.57421875 2.46875 C-22.87519865 -6.49793156 -11.2729189 -6.19937434 0 0 Z " fill="#2A2A2B" transform="translate(396.32421875,130.15625)"/>
<path d="M0 0 C3 0.4375 3 0.4375 6 2.4375 C6.26660183 5.34584885 6.34779124 8.03888268 6.29296875 10.9453125 C6.28872391 11.78593231 6.28447906 12.62655212 6.28010559 13.49264526 C6.26328532 16.18291993 6.22562781 18.87245099 6.1875 21.5625 C6.17245745 23.38410378 6.1587683 25.20571928 6.14648438 27.02734375 C6.11337094 31.49768324 6.06156637 35.96746546 6 40.4375 C6.69268982 40.42861755 7.38537964 40.41973511 8.09906006 40.4105835 C15.30130776 40.32216617 22.50340157 40.26178867 29.70605469 40.21777344 C32.39504466 40.199901 35.08365826 40.17205525 37.77246094 40.13574219 C41.63487561 40.08728385 45.49671208 40.06454374 49.359375 40.046875 C50.5636615 40.02622986 51.767948 40.00558472 53.00872803 39.98431396 C54.12958801 39.98401184 55.250448 39.98370972 56.40527344 39.98339844 C57.39122498 39.97451599 58.37717651 39.96563354 59.39300537 39.95648193 C62.75279104 40.5763979 63.95501687 41.74600654 66 44.4375 C65.9375 47.5625 65.9375 47.5625 65 50.4375 C61.50308027 52.76877982 60.07543851 52.69937644 55.93969727 52.72802734 C54.06744225 52.7471669 54.06744225 52.7471669 52.15736389 52.76669312 C50.79371292 52.76975044 49.43005987 52.77197837 48.06640625 52.7734375 C46.66779951 52.77986466 45.26919412 52.78659296 43.87059021 52.79360962 C40.93932986 52.80558342 38.00818738 52.80929031 35.0769043 52.80810547 C31.32283406 52.80790217 27.56951998 52.83521359 23.81562901 52.86964989 C20.92710404 52.89189871 18.03876171 52.89594367 15.15015984 52.89488602 C13.76626922 52.89724468 12.38237377 52.90608327 10.99856758 52.92155075 C9.06237676 52.94116751 7.12596405 52.93286125 5.18969727 52.92333984 C4.08844009 52.92618988 2.98718292 52.92903992 1.85255432 52.93197632 C-1.66143451 52.32284357 -2.80294869 51.18391918 -5 48.4375 C-6.69671408 45.04407185 -6.18490156 41.18327488 -6.203125 37.44921875 C-6.20882507 36.55386917 -6.21452515 35.65851959 -6.22039795 34.73603821 C-6.2298539 32.83876733 -6.23638429 30.94147999 -6.24023438 29.04418945 C-6.24992639 26.1470047 -6.28093831 23.25053338 -6.3125 20.35351562 C-6.31903143 18.51042088 -6.32428135 16.66732106 -6.328125 14.82421875 C-6.3404718 13.95947433 -6.3528186 13.09472992 -6.36553955 12.20378113 C-6.32394708 0.92224228 -6.32394708 0.92224228 0 0 Z " fill="#2C2D2D" transform="translate(211,248.5625)"/>
<path d="M0 0 C8.8383585 6.25152186 11.85958082 20.00074698 14 30 C14.44065941 34.66585701 14.5389043 39.27912778 14.46655273 43.95898438 C14.43750675 45.9995261 14.44602235 48.03746248 14.45898438 50.078125 C14.43908932 62.39214883 12.62836157 73.97602866 7 85 C6.65710938 85.74378906 6.31421875 86.48757813 5.9609375 87.25390625 C3.38947311 92.74035126 3.38947311 92.74035126 0 95 C-2.79523674 95.34940459 -4.3648354 95.37233787 -6.8125 93.9375 C-8.68494506 90.88245806 -8.76585671 88.40112743 -8 85 C-6.62784982 82.09624487 -5.13063737 79.32212711 -3.5078125 76.55078125 C0.29810512 67.58814106 0.36246674 57.73217627 0.3125 48.125 C0.30404053 46.41437378 0.30404053 46.41437378 0.29541016 44.66918945 C0.11440848 32.10570189 -1.95133355 22.11093065 -7.79296875 10.83984375 C-9.03274561 7.92295774 -9.34313852 6.12637318 -9 3 C-6.73510144 -0.64900323 -4.03423148 -0.64547704 0 0 Z " fill="#2E2E2E" transform="translate(410,179)"/>
<path d="M0 0 C3.5 0.25 3.5 0.25 5.5 2.25 C5.97750616 5.68724184 5.87037778 9.15833818 5.875 12.625 C5.89949219 13.5840625 5.92398438 14.543125 5.94921875 15.53125 C5.97863385 22.57126502 5.97863385 22.57126502 3.640625 25.88671875 C0.9981935 27.56958115 -0.42551971 27.81635163 -3.5 27.25 C-5.67746353 23.9838047 -5.75606429 23.00054166 -5.765625 19.21484375 C-5.76820313 18.24095703 -5.77078125 17.26707031 -5.7734375 16.26367188 C-5.76570312 15.24853516 -5.75796875 14.23339844 -5.75 13.1875 C-5.75773438 12.16849609 -5.76546875 11.14949219 -5.7734375 10.09960938 C-5.77085937 9.12701172 -5.76828125 8.15441406 -5.765625 7.15234375 C-5.76336914 6.26023193 -5.76111328 5.36812012 -5.75878906 4.44897461 C-5.29251131 0.48693338 -3.79354633 0.2709676 0 0 Z " fill="#2B2C2B" transform="translate(211.5,180.75)"/>
<path d="M0 0 C0.33 0.66 0.66 1.32 1 2 C0.67 2.99 0.34 3.98 0 5 C-0.66 5 -1.32 5 -2 5 C-2 5.66 -2 6.32 -2 7 C-3.609375 8.5859375 -3.609375 8.5859375 -5.75 10.375 C-8.6243732 12.81617866 -11.38543992 15.27649992 -14 18 C-14.66 17.67 -15.32 17.34 -16 17 C-15.25556641 16.27296875 -15.25556641 16.27296875 -14.49609375 15.53125 C-10.26188493 11.35328304 -6.22406871 7.07858568 -2.34765625 2.56640625 C-1.59150381 1.68751602 -0.81982149 0.81982149 0 0 Z " fill="#474747" transform="translate(252,176)"/>
<path d="M0 0 C0.66 0 1.32 0 2 0 C2 6.6 2 13.2 2 20 C1.01 19.67 0.02 19.34 -1 19 C-0.67 12.73 -0.34 6.46 0 0 Z " fill="#C0C1C0" transform="translate(204,185)"/>
<path d="M0 0 C0.33 0.99 0.66 1.98 1 3 C-1.89912232 7.09287857 -4.48652248 9.67878299 -9 12 C-8.45015228 8.12488273 -6.72444669 6.40423494 -3.9375 3.75 C-3.20402344 3.04359375 -2.47054687 2.3371875 -1.71484375 1.609375 C-1.14894531 1.07828125 -0.58304688 0.5471875 0 0 Z " fill="#484948" transform="translate(225,204)"/>
<path d="M0 0 C-1.32 1.32 -2.64 2.64 -4 4 C-4.99 3.67 -5.98 3.34 -7 3 C-7.99 3.99 -8.98 4.98 -10 6 C-10.66 5.67 -11.32 5.34 -12 5 C-4.50757576 -1.35227273 -4.50757576 -1.35227273 0 0 Z " fill="#555555" transform="translate(376,128)"/>
<path d="M0 0 C0.66 0.33 1.32 0.66 2 1 C0.21825212 3.30142435 -1.16304165 4.80034391 -4.046875 5.48828125 C-6.0246611 5.72323102 -8.01271872 5.86751458 -10 6 C-6.87511433 3.47605388 -3.68685613 1.60298093 0 0 Z " fill="#CBCBCB" transform="translate(196,248)"/>
<path d="M0 0 C0 3.97054597 -1.3139381 5.16471244 -4 8 C-6.25 8.8125 -6.25 8.8125 -8 9 C-6.4169423 4.7257442 -3.49431596 2.73468206 0 0 Z " fill="#D1D3D2" transform="translate(273,174)"/>
<path d="M0 0 C0.99 0.33 1.98 0.66 3 1 C2.67 2.32 2.34 3.64 2 5 C0.35 5 -1.3 5 -3 5 C-3 4.01 -3 3.02 -3 2 C-2.34 2 -1.68 2 -1 2 C-0.67 1.34 -0.34 0.68 0 0 Z " fill="#343535" transform="translate(374,354)"/>
<path d="M0 0 C0.33 0.99 0.66 1.98 1 3 C-0.65 4.65 -2.3 6.3 -4 8 C-4.99 7.67 -5.98 7.34 -7 7 C-4.69 4.69 -2.38 2.38 0 0 Z " fill="#CBCBCB" transform="translate(239,208)"/>
<path d="M0 0 C1.125 1.75 1.125 1.75 2 4 C1.125 6.25 1.125 6.25 0 8 C-0.99 7.67 -1.98 7.34 -3 7 C-1.125 2.25 -1.125 2.25 0 0 Z " fill="#D7D9D8" transform="translate(405,160)"/>
</svg>
