<?xml version="1.0" encoding="UTF-8"?>
<svg version="1.1" xmlns="http://www.w3.org/2000/svg" width="570" height="426">
<path d="M0 0 C188.1 0 376.2 0 570 0 C570 140.58 570 281.16 570 426 C381.9 426 193.8 426 0 426 C0 285.42 0 144.84 0 0 Z " fill="#F7F7F7" transform="translate(0,0)"/>
<path d="M0 0 C4.033498 0.31766409 6.48740306 1.23836966 10.08203125 3.046875 C14.61783798 5.30055062 19.16922152 7.27846511 23.87670898 9.13232422 C30.32318537 11.72745397 36.68085118 14.54471141 43.05419922 17.31420898 C44.903458 18.11710779 46.75444115 18.9160313 48.60546875 19.71484375 C49.6939209 20.18688232 50.78237305 20.6589209 51.90380859 21.14526367 C54.20717763 22.07088914 56.3480351 22.78907108 58.76953125 23.296875 C58.76953125 23.956875 58.76953125 24.616875 58.76953125 25.296875 C60.02765625 25.626875 61.28578125 25.956875 62.58203125 26.296875 C71.24574533 28.86715197 79.48923365 32.71010611 87.76953125 36.296875 C87.76953125 38.276875 87.76953125 40.256875 87.76953125 42.296875 C82.33331619 45.40196733 76.69314282 46.74307687 70.64453125 48.234375 C68.58042979 48.77489973 66.51662416 49.31655549 64.453125 49.859375 C61.24647486 50.69137071 58.0645736 51.45941363 54.8046875 52.046875 C51.59519509 52.75919614 49.44131686 53.37580053 46.76953125 55.296875 C44.25855185 59.38725509 42.80773782 63.52622305 41.43603516 68.10595703 C40.50601873 71.16308794 39.44250517 74.16772668 38.37451172 77.17895508 C37.85838885 78.63971318 37.35293065 80.10429739 36.85986328 81.57299805 C35.54218941 85.44418517 34.16785471 88.9658702 31.76953125 92.296875 C29.33203125 92.984375 29.33203125 92.984375 26.76953125 92.296875 C23.03054934 87.58380963 21.26123044 82.59141096 19.39453125 76.921875 C18.7827551 75.11797844 18.16945611 73.31459767 17.5546875 71.51171875 C17.25320801 70.62339355 16.95172852 69.73506836 16.64111328 68.81982422 C15.44141105 65.34707272 14.14654124 61.91495835 12.83203125 58.484375 C9.92581775 50.86989792 7.27335507 43.17149678 4.66040039 35.4519043 C2.64968861 29.57911415 0.36376598 23.93373072 -2.23046875 18.296875 C-4.67566231 12.71119308 -5.7607123 8.44770014 -5.23046875 2.296875 C-3.23046875 0.296875 -3.23046875 0.296875 0 0 Z " fill="#292A2A" transform="translate(363.23046875,257.703125)"/>
<path d="M0 0 C1.39575256 -0.00810448 1.39575256 -0.00810448 2.81970215 -0.01637268 C5.8957499 -0.0288808 8.97086553 -0.01235483 12.046875 0.00561523 C14.18391977 0.0054603 16.32096483 0.00397216 18.45800781 0.00120544 C22.93697531 -0.00017949 27.41562294 0.01239549 31.89453125 0.03515625 C37.63820526 0.06354092 43.38134769 0.0608047 49.12506104 0.04806614 C53.53796943 0.041114 57.95075477 0.04889297 62.36364746 0.06132317 C64.48156258 0.06584217 66.5994909 0.06617056 68.71740723 0.06225777 C71.67646399 0.05935015 74.63478602 0.07583134 77.59375 0.09765625 C78.47075562 0.0931546 79.34776123 0.08865295 80.25134277 0.08401489 C83.69642102 0.12627274 86.190861 0.2209654 89.34170532 1.68063354 C91.35717727 4.20290055 91.29187039 5.83084438 91.28271484 9.04296875 C91.29194473 10.74472008 91.29194473 10.74472008 91.30136108 12.48085022 C91.28699005 13.70589767 91.27261902 14.93094513 91.2578125 16.19311523 C91.25689606 17.44930161 91.25597961 18.70548798 91.2550354 19.9997406 C91.24898807 22.65744001 91.23535566 25.31375467 91.20849609 27.97119141 C91.17448108 31.38002555 91.16686851 34.78826733 91.16838646 38.19725132 C91.16771249 41.44593139 91.1500408 44.69448683 91.1328125 47.94311523 C91.13058685 49.17018692 91.12836121 50.39725861 91.12606812 51.66151428 C91.11330841 52.79286301 91.10054871 53.92421173 91.08740234 55.08984375 C91.07596695 56.58850731 91.07596695 56.58850731 91.06430054 58.1174469 C90.796875 60.50170898 90.796875 60.50170898 88.796875 62.50170898 C85.671875 62.62670898 85.671875 62.62670898 82.796875 62.50170898 C81.56606991 60.04009881 81.67643523 58.43673905 81.68334961 55.68481445 C81.68347046 54.66991943 81.68359131 53.65502441 81.68371582 52.609375 C81.68883179 51.54001709 81.69394775 50.47065918 81.69921875 49.36889648 C81.70022583 48.38800049 81.70123291 47.40710449 81.70227051 46.39648438 C81.70751277 42.72321406 81.72147398 39.04996038 81.734375 35.37670898 C81.755 27.16795898 81.775625 18.95920898 81.796875 10.50170898 C53.746875 10.50170898 25.696875 10.50170898 -3.203125 10.50170898 C-3.203125 31.62170898 -3.203125 52.74170898 -3.203125 74.50170898 C5.71332031 74.47850586 14.62976563 74.45530273 23.81640625 74.43139648 C30.17032089 74.41988312 36.52422773 74.40962972 42.87814617 74.40120125 C51.11613447 74.39010513 59.35408241 74.37600331 67.59204102 74.35083008 C74.11286865 74.33091346 80.63366587 74.31799666 87.15452307 74.31353199 C90.6081838 74.31092167 94.06175752 74.30477463 97.5153904 74.29024887 C101.3681058 74.27417561 105.22073559 74.27372819 109.07348633 74.2746582 C110.22219208 74.26746765 111.37089783 74.2602771 112.55441284 74.25286865 C114.12563148 74.25699265 114.12563148 74.25699265 115.72859192 74.26119995 C116.64024518 74.25935637 117.55189844 74.25751278 118.49117756 74.25561333 C120.796875 74.50170898 120.796875 74.50170898 123.796875 76.50170898 C124.234375 78.93920898 124.234375 78.93920898 123.796875 81.50170898 C120.770919 84.42511286 118.584749 84.87974063 114.44543457 84.89611816 C113.36029068 84.90746796 112.27514679 84.91881775 111.15711975 84.93051147 C109.97153976 84.92758087 108.78595978 84.92465027 107.56445312 84.92163086 C105.68589882 84.93433517 105.68589882 84.93433517 103.76939392 84.94729614 C100.33747828 84.96668839 96.90610631 84.97244321 93.47417259 84.97054863 C90.60874376 84.97042893 87.74336582 84.97899245 84.87795115 84.98732615 C78.1186321 85.00655773 71.35943656 85.00944458 64.60009766 85.00268555 C57.62665685 84.99604085 50.65374447 85.01892628 43.68041086 85.05599928 C37.69217582 85.08668004 31.70411094 85.09805823 25.71579885 85.09416246 C22.13964003 85.09209365 18.56389263 85.097594 14.98780823 85.12205505 C11.0014263 85.14842257 7.01573889 85.13460653 3.02929688 85.11694336 C1.84371689 85.1302066 0.6581369 85.14346985 -0.56336975 85.15713501 C-8.44795242 85.07569261 -8.44795242 85.07569261 -11.93530273 82.42506409 C-13.51061001 78.79270749 -13.71106786 76.07665067 -13.72070312 72.11279297 C-13.7277124 71.38697021 -13.73472168 70.66114746 -13.74194336 69.91333008 C-13.75948736 67.52442689 -13.74791569 65.13671705 -13.734375 62.74780273 C-13.73707068 61.08301059 -13.74095374 59.41821999 -13.74597168 57.75343323 C-13.75186157 54.269063 -13.74331942 50.78510363 -13.72460938 47.30078125 C-13.70180199 42.83603243 -13.71495684 38.37224449 -13.73889923 33.90753078 C-13.75335607 30.47167219 -13.74875214 27.03604132 -13.73838806 23.60017586 C-13.73572136 21.95394845 -13.73898857 20.30770031 -13.74830627 18.66149712 C-13.75847247 16.36085124 -13.74297313 14.06176055 -13.72070312 11.76123047 C-13.71592957 9.79862526 -13.71592957 9.79862526 -13.71105957 7.79637146 C-13.203125 4.50170898 -13.203125 4.50170898 -11.74597168 2.0793457 C-7.90799545 -0.30181721 -4.43440805 -0.0488842 0 0 Z " fill="#2F3030" transform="translate(144.203125,78.498291015625)"/>
<path d="M0 0 C1.25619141 0.00515625 2.51238281 0.0103125 3.80664062 0.015625 C12.97074083 0.09441361 12.97074083 0.09441361 16.4375 1.25 C17.83181504 4.03863007 17.69410094 6.17078868 17.4375 9.25 C13.99056357 11.54795762 12.99428651 11.43351379 8.9765625 11.234375 C-20.00135123 10.23148093 -41.2428704 17.82859655 -62.5625 37.25 C-63.97402344 38.49910156 -63.97402344 38.49910156 -65.4140625 39.7734375 C-71.12178329 44.84135478 -76.49436721 50.04033142 -81.5625 55.75 C-88.09891367 63.0650804 -95.13568607 69.88410552 -102.1171875 76.76953125 C-104.79854582 79.48943945 -107.37453571 82.29454076 -109.9375 85.125 C-114.03599723 89.61683236 -118.14785994 94.06550705 -122.5625 98.25 C-123.12710938 98.78625 -123.69171875 99.3225 -124.2734375 99.875 C-134.61951533 109.30433676 -145.43206707 116.4398414 -158.5625 121.25 C-159.99722656 121.81074219 -159.99722656 121.81074219 -161.4609375 122.3828125 C-173.18908435 125.66196691 -185.76445878 123.3461621 -196.34375 117.7890625 C-203.45153269 113.67072959 -208.9118186 109.29927034 -213.6875 102.625 C-214.11675781 102.05910156 -214.54601562 101.49320312 -214.98828125 100.91015625 C-220.6307803 93.08010373 -222.1498528 84.49998293 -222.125 75 C-222.1240332 74.09193604 -222.12306641 73.18387207 -222.12207031 72.24829102 C-221.88566482 63.09567437 -219.57776032 55.03650834 -213.58984375 47.8984375 C-210.62417599 45.48704675 -208.2583182 45.90133791 -204.5625 46.25 C-203.5625 47.25 -203.5625 47.25 -203.31640625 49.9609375 C-203.59667429 53.70674215 -204.58317652 55.67277724 -206.5 58.875 C-211.40796193 67.15936128 -211.93116507 75.81892318 -209.9140625 85.296875 C-207.14691618 93.66926644 -202.03299916 101.38548892 -194.5625 106.25 C-193.95921875 106.6934375 -193.3559375 107.136875 -192.734375 107.59375 C-186.81866464 111.31692435 -181.31505251 111.72244166 -174.5 111.75 C-173.66138428 111.75612305 -172.82276855 111.76224609 -171.95874023 111.76855469 C-163.71012313 111.6038246 -156.79587496 109.29336718 -149.6875 105.125 C-148.78257812 104.60679687 -147.87765625 104.08859375 -146.9453125 103.5546875 C-135.09020553 95.78443804 -125.38473818 85.34930887 -115.45458984 75.34790039 C-112.81012385 72.68510738 -110.15767246 70.03047439 -107.50390625 67.37695312 C-105.7990059 65.66713845 -104.09456294 63.95686754 -102.390625 62.24609375 C-101.6081842 61.46254013 -100.82574341 60.67898651 -100.01959229 59.87168884 C-95.87783727 55.69445499 -91.90167638 51.43161031 -88.06085205 46.97618103 C-65.23041676 20.67430873 -36.05778549 -0.60889136 0 0 Z " fill="#2E2F2F" transform="translate(354.5625,127.75)"/>
<path d="M0 0 C0.73299316 0.00016774 1.46598633 0.00033548 2.22119141 0.00050831 C3.48310303 -0.01001316 3.48310303 -0.01001316 4.77050781 -0.02074718 C5.69524902 -0.01310345 6.61999023 -0.00545971 7.57275391 0.00241566 C8.54519043 -0.00123501 9.51762695 -0.00488567 10.51953125 -0.00864697 C13.74578109 -0.01677738 16.9715326 -0.00312154 20.19775391 0.01144886 C22.4321289 0.01196717 24.66650436 0.01145061 26.90087891 0.00993824 C31.58844796 0.01002808 36.27584543 0.02048062 40.96337891 0.03854847 C46.98298347 0.06123593 53.00233711 0.06178092 59.02197266 0.05503082 C63.63722986 0.05169513 68.25242948 0.05831339 72.86767578 0.06816006 C75.0877248 0.07201925 77.30778022 0.07315731 79.52783203 0.07157421 C82.62626429 0.07120485 85.72437046 0.08378742 88.82275391 0.10007191 C89.74749512 0.09759449 90.67223633 0.09511707 91.625 0.09256458 C92.46627441 0.09964939 93.30754883 0.1067342 94.17431641 0.1140337 C94.90730957 0.11608657 95.64030273 0.11813944 96.39550781 0.12025452 C98.19775391 0.37473011 98.19775391 0.37473011 100.19775391 2.37473011 C100.44499207 4.43077564 100.44499207 4.43077564 100.44067383 6.99216175 C100.44528877 8.42858776 100.44528877 8.42858776 100.44999695 9.89403248 C100.43921867 11.44875515 100.43921867 11.44875515 100.42822266 13.03488636 C100.42776443 14.09509495 100.42730621 15.15530354 100.42683411 16.24763966 C100.42380961 18.49126777 100.41591747 20.73489374 100.40356445 22.97848988 C100.38531124 26.4264002 100.38305469 29.87404215 100.38330078 33.32199574 C100.37838567 35.49712828 100.37255738 37.672259 100.36572266 39.84738636 C100.36460983 40.88589237 100.36349701 41.92439838 100.36235046 42.99437428 C100.35597061 43.94883945 100.34959076 44.90330463 100.34301758 45.886693 C100.33920578 46.73115482 100.33539398 47.57561665 100.33146667 48.44566822 C100.19775391 50.37473011 100.19775391 50.37473011 99.19775391 51.37473011 C96.82275391 51.68723011 96.82275391 51.68723011 94.19775391 51.37473011 C85.7763526 40.14619503 91.19775391 23.41039896 91.19775391 9.37473011 C63.14775391 9.37473011 35.09775391 9.37473011 6.19775391 9.37473011 C6.19775391 37.42473011 6.19775391 65.47473011 6.19775391 94.37473011 C20.21447114 94.17689833 20.21447114 94.17689833 34.23022461 93.92429066 C35.98631272 93.90968882 37.74241772 93.89694743 39.49853516 93.88644886 C40.41163452 93.86086903 41.32473389 93.83528919 42.26550293 93.80893421 C44.67911947 93.80726296 46.84218021 93.85137215 49.19775391 94.37473011 C51.36645508 96.65524769 51.36645508 96.65524769 52.19775391 99.37473011 C51.74971008 101.54469776 51.74971008 101.54469776 51.19775391 103.37473011 C43.68642626 103.45059921 36.17519686 103.50325335 28.66357422 103.53952503 C26.10657051 103.55464081 23.54959284 103.57513377 20.99267578 103.60104847 C17.32399074 103.63730873 13.6556475 103.65442847 9.98681641 103.66769886 C8.83782867 103.68318272 7.68884094 103.69866657 6.5050354 103.71461964 C4.91361221 103.71495953 4.91361221 103.71495953 3.29003906 103.71530628 C1.88439194 103.72529903 1.88439194 103.72529903 0.4503479 103.73549366 C-0.29300812 103.61644169 -1.03636414 103.49738972 -1.80224609 103.37473011 C-3.82931761 100.33412283 -4.05258644 99.76021777 -4.05621338 96.35165882 C-4.06185303 95.53569736 -4.06749268 94.71973591 -4.07330322 93.87904835 C-4.06925476 92.98752567 -4.0652063 92.096003 -4.06103516 91.17746449 C-4.06453979 90.23574894 -4.06804443 89.29403339 -4.07165527 88.32378101 C-4.08047084 85.20527279 -4.074624 82.08699071 -4.06787109 78.96848011 C-4.06921779 76.80519028 -4.07115836 74.64190074 -4.07366943 72.47861195 C-4.07662046 67.94249054 -4.07232369 63.40644784 -4.06298828 58.87033558 C-4.05159381 53.04928542 -4.05815338 47.22841968 -4.07013321 41.40737629 C-4.07735235 36.93963698 -4.07506362 32.47194155 -4.06987762 28.00420094 C-4.06854128 25.85754341 -4.07018831 23.71088192 -4.07483673 21.56422901 C-4.07990279 18.56671019 -4.07219048 15.5694921 -4.06103516 12.57199574 C-4.06508362 11.68047306 -4.06913208 10.78895039 -4.07330322 9.87041187 C-4.06766357 9.05445042 -4.06202393 8.23848896 -4.05621338 7.3978014 C-4.05545933 6.68915188 -4.05470528 5.98050236 -4.05392838 5.25037861 C-3.68251489 2.48243985 -2.86963413 0.59666564 0 0 Z " fill="#2B2C2C" transform="translate(310.80224609375,207.62526988983154)"/>
<path d="M0 0 C5.3041278 5.46485895 6.48365096 12.88873465 6.40625 20.203125 C5.69583381 26.24166261 2.60605112 31.04499177 -1.9375 35 C-9.2382992 40.17139943 -13.99303516 40.91453559 -22.9375 40.125 C-28.52913513 38.97456789 -32.30763751 36.53969762 -35.9375 32.125 C-36.40414063 31.59390625 -36.87078125 31.0628125 -37.3515625 30.515625 C-42.10640334 24.29979954 -41.71977592 17.65103389 -40.9375 10.125 C-39.25775818 3.18206716 -34.51929605 -0.75142403 -28.9375 -4.875 C-18.42811223 -10.24149588 -9.10462267 -5.81146128 0 0 Z " fill="#292A2B" transform="translate(422.9375,125.875)"/>
<path d="M0 0 C3.0497029 0.37191499 3.69155824 0.94858586 5.5625 3.3125 C5.82417679 6.25434741 5.91123921 8.9798721 5.85546875 11.91796875 C5.85122391 12.75717361 5.84697906 13.59637848 5.84260559 14.46101379 C5.82581464 17.14100245 5.7881623 19.8202387 5.75 22.5 C5.73495367 24.31704643 5.72126518 26.13410465 5.70898438 27.95117188 C5.67590982 32.40523776 5.62412513 36.85874132 5.5625 41.3125 C6.64244987 41.30250725 6.64244987 41.30250725 7.74421692 41.29231262 C14.52737407 41.23221543 21.31049146 41.1865327 28.09384632 41.15706348 C31.58131576 41.14140365 35.06856532 41.1201602 38.5559082 41.08618164 C42.56463743 41.0473672 46.57313548 41.0327935 50.58203125 41.01953125 C51.83522659 41.00404739 53.08842194 40.98856354 54.3795929 40.97261047 C56.12105843 40.97227058 56.12105843 40.97227058 57.89770508 40.97192383 C58.92140701 40.96526199 59.94510895 40.95860016 60.99983215 40.95173645 C63.5625 41.3125 63.5625 41.3125 65.40092468 42.63847351 C67.15860572 45.17158916 66.82272126 47.31995551 66.5625 50.3125 C64.71648688 52.15851312 61.70944509 51.44991323 59.23852539 51.45776367 C58.24826103 51.46280159 58.24826103 51.46280159 57.23799133 51.46794128 C55.04536075 51.47747695 52.85280631 51.4793957 50.66015625 51.48046875 C49.1417996 51.48367955 47.62344327 51.48704349 46.10508728 51.49055481 C42.91811404 51.49655265 39.73116794 51.49839404 36.54418945 51.49780273 C32.453804 51.49770108 28.36359203 51.51135343 24.27324772 51.52857494 C21.13605444 51.53967571 17.99890334 51.54172254 14.86169243 51.54119301 C13.3533614 51.54237603 11.84502939 51.54681575 10.33671761 51.55452538 C8.22964341 51.56428662 6.12294902 51.56146282 4.01586914 51.55541992 C2.81531387 51.55684494 1.61475861 51.55826996 0.37782288 51.55973816 C-2.4375 51.3125 -2.4375 51.3125 -4.4375 49.3125 C-4.69146729 47.30114746 -4.69146729 47.30114746 -4.69628906 44.80273438 C-4.70259338 43.86836548 -4.70889771 42.93399658 -4.71539307 41.97131348 C-4.7113446 40.95984253 -4.70729614 39.94837158 -4.703125 38.90625 C-4.70503845 37.87060913 -4.7069519 36.83496826 -4.70892334 35.76794434 C-4.71028597 33.57559975 -4.70658414 31.38324711 -4.69824219 29.19091797 C-4.68754392 25.82631384 -4.69813503 22.46224368 -4.7109375 19.09765625 C-4.70961592 16.97135298 -4.70705356 14.84505005 -4.703125 12.71875 C-4.70717346 11.70727905 -4.71122192 10.69580811 -4.71539307 9.65368652 C-4.70908875 8.71931763 -4.70278442 7.78494873 -4.69628906 6.82226562 C-4.69469788 5.99778931 -4.69310669 5.17331299 -4.69146729 4.32385254 C-4.29013881 1.14543901 -3.08610089 0.39565396 0 0 Z " fill="#343434" transform="translate(230.4375,241.6875)"/>
<path d="M0 0 C3.125 0.4375 3.125 0.4375 5.1875 2.25 C16.36421265 20.63749501 19.63438616 45.38062821 15.25390625 66.4296875 C13.10008266 74.7936714 9.29758544 87.26491456 3.125 93.4375 C0.3290342 93.73181219 -1.31212819 93.77522308 -3.75 92.3125 C-4.875 90.4375 -4.875 90.4375 -4.875 87.875 C-4.00660292 84.88988505 -3.05079995 82.86459682 -1.5625 80.1875 C6.69271028 64.08504041 7.85215561 42.67281359 3.1171875 25.37890625 C1.00944196 19.13035353 -1.20467202 12.94299197 -4.875 7.4375 C-5.125 4.875 -5.125 4.875 -4.875 2.4375 C-2.875 0.4375 -2.875 0.4375 0 0 Z " fill="#313131" transform="translate(428.875,171.5625)"/>
<path d="M0 0 C3.0625 0.1875 3.0625 0.1875 5.0625 2.1875 C5.51341675 5.64693333 5.38656422 9.13954434 5.375 12.625 C5.39111328 13.59244141 5.40722656 14.55988281 5.42382812 15.55664062 C5.42479492 16.94979492 5.42479492 16.94979492 5.42578125 18.37109375 C5.43025269 19.64811157 5.43025269 19.64811157 5.43481445 20.95092773 C4.98173166 23.67269261 4.25983571 24.56147811 2.0625 26.1875 C-0.5625 26.4375 -0.5625 26.4375 -2.9375 26.1875 C-4.65317792 24.47182208 -4.06765825 22.21377265 -4.0703125 19.875 C-4.07160156 18.79992187 -4.07289063 17.72484375 -4.07421875 16.6171875 C-4.06841797 14.91949219 -4.06841797 14.91949219 -4.0625 13.1875 C-4.06636719 12.05570313 -4.07023438 10.92390625 -4.07421875 9.7578125 C-4.07292969 8.68273437 -4.07164062 7.60765625 -4.0703125 6.5 C-4.06918457 5.50613281 -4.06805664 4.51226562 -4.06689453 3.48828125 C-3.8719586 0.02209972 -3.52644764 0.2250924 0 0 Z " fill="#2E2E2E" transform="translate(229.9375,172.8125)"/>
<path d="M0 0 C0.33 0.66 0.66 1.32 1 2 C0.32904297 2.76183594 0.32904297 2.76183594 -0.35546875 3.5390625 C-0.96003906 4.22742188 -1.56460938 4.91578125 -2.1875 5.625 C-2.83203125 6.35847656 -3.4765625 7.09195313 -4.140625 7.84765625 C-5.6130474 9.55207797 -7.0348584 11.3002067 -8.4375 13.0625 C-11.08105559 16.09291738 -13.8884937 18.60147771 -16.94921875 21.1953125 C-18.97663618 22.97943984 -20.8258616 24.85757689 -22.6875 26.8125 C-25.25198617 29.43580466 -27.38368285 31.01373169 -31 32 C-28.12362664 28.04498663 -24.84223853 25.05100277 -21.15625 21.89453125 C-15.95777837 17.32703353 -11.26731784 12.44450897 -7 7 C-5.35305515 5.31384218 -3.68873879 3.64429829 -2 2 C-1.34 1.34 -0.68 0.68 0 0 Z " fill="#DCDCDC" transform="translate(257,199)"/>
<path d="M0 0 C0 3.67819168 -0.76843318 4.22382655 -3.1875 6.875 C-3.82558594 7.57496094 -4.46367187 8.27492187 -5.12109375 8.99609375 C-5.74113281 9.65738281 -6.36117188 10.31867188 -7 11 C-7.48597656 11.52722656 -7.97195313 12.05445313 -8.47265625 12.59765625 C-10.64434928 14.87560949 -11.9584648 15.98615493 -15 17 C-15.12375 17.598125 -15.2475 18.19625 -15.375 18.8125 C-16.28601298 22.00104544 -18.37615941 23.11621701 -21 25 C-21.66 24.67 -22.32 24.34 -23 24 C-15.70145063 15.62018405 -7.90434298 7.8031494 0 0 Z " fill="#434444" transform="translate(283,158)"/>
<path d="M0 0 C2.5 0.25 2.5 0.25 4.5 2.25 C4.67539436 5.19096737 4.73132375 8.03653349 4.6953125 10.9765625 C4.6924826 11.83937836 4.68965271 12.70219421 4.68673706 13.59115601 C4.67552333 16.3525772 4.65041684 19.1136765 4.625 21.875 C4.61497173 23.74478699 4.60584562 25.61457905 4.59765625 27.484375 C4.57558012 32.07304109 4.54104234 36.66146593 4.5 41.25 C4.17 41.25 3.84 41.25 3.5 41.25 C3.47494385 40.18040039 3.4498877 39.11080078 3.42407227 38.00878906 C3.32980472 34.03536273 3.22963142 30.06210332 3.12768555 26.08886719 C3.08440984 24.37015695 3.04272959 22.65140576 3.00268555 20.93261719 C2.94480435 18.460161 2.88116164 15.98790953 2.81640625 13.515625 C2.79969376 12.74881409 2.78298126 11.98200317 2.76576233 11.19195557 C2.66987135 7.72826016 2.42084138 4.58633749 1.5 1.25 C-0.54836882 1.81362302 -0.54836882 1.81362302 -2.5 3.25 C-3.31584568 6.30908413 -3.31584568 6.30908413 -3.5 9.25 C-3.83 9.25 -4.16 9.25 -4.5 9.25 C-4.625 5.875 -4.625 5.875 -4.5 2.25 C-2.5 0.25 -2.5 0.25 0 0 Z " fill="#3D3F3E" transform="translate(230.5,241.75)"/>
<path d="M0 0 C0.66 0 1.32 0 2 0 C2.33 1.32 2.66 2.64 3 4 C3.66 4 4.32 4 5 4 C5 5.98 5 7.96 5 10 C4.01 10.495 4.01 10.495 3 11 C2.443125 10.030625 1.88625 9.06125 1.3125 8.0625 C-0.68035805 4.81008721 -0.68035805 4.81008721 -3.75 4.125 C-4.4925 4.08375 -5.235 4.0425 -6 4 C-6 3.67 -6 3.34 -6 3 C-5.195625 2.87625 -4.39125 2.7525 -3.5625 2.625 C-2.716875 2.41875 -1.87125 2.2125 -1 2 C-0.67 1.34 -0.34 0.68 0 0 Z " fill="#E3E5E4" transform="translate(433,168)"/>
<path d="M0 0 C0.33 0.66 0.66 1.32 1 2 C-0.10281127 3.27200971 -1.20730769 4.54255853 -2.3125 5.8125 C-2.92738281 6.52019531 -3.54226562 7.22789062 -4.17578125 7.95703125 C-5.73334335 9.70136739 -7.32658875 11.36778041 -9 13 C-9.66 12.67 -10.32 12.34 -11 12 C-8.22095576 8.39753524 -5.25893558 5.17317412 -2 2 C-1.34 1.34 -0.68 0.68 0 0 Z " fill="#CFCFCF" transform="translate(257,199)"/>
<path d="M0 0 C0.66 0.33 1.32 0.66 2 1 C1.16855469 1.92232422 1.16855469 1.92232422 0.3203125 2.86328125 C-0.76636719 4.07564453 -0.76636719 4.07564453 -1.875 5.3125 C-2.95394531 6.51326172 -2.95394531 6.51326172 -4.0546875 7.73828125 C-6.11605502 10.04189083 -6.11605502 10.04189083 -8 13 C-7.48118887 8.8275894 -6.28848726 6.74583179 -3.4375 3.6875 C-2.79683594 2.99011719 -2.15617187 2.29273437 -1.49609375 1.57421875 C-1.00238281 1.05472656 -0.50867188 0.53523438 0 0 Z " fill="#545554" transform="translate(391,123)"/>
<path d="M0 0 C0.33 0.66 0.66 1.32 1 2 C-0.27984466 5.83953399 -2.81501296 7.65316744 -6 10 C-6.66 9.67 -7.32 9.34 -8 9 C-5.36 6.03 -2.72 3.06 0 0 Z " fill="#4B4C4C" transform="translate(268,173)"/>
<path d="M0 0 C0.66 0 1.32 0 2 0 C2.33 1.32 2.66 2.64 3 4 C2.34 4 1.68 4 1 4 C0.67 4.66 0.34 5.32 0 6 C-1.98 5.34 -3.96 4.68 -6 4 C-5.38125 3.71125 -4.7625 3.4225 -4.125 3.125 C-1.86674235 2.06279958 -1.86674235 2.06279958 0 0 Z " fill="#E4E6E5" transform="translate(235,138)"/>
<path d="M0 0 C0.33 0.99 0.66 1.98 1 3 C-0.65 4.65 -2.3 6.3 -4 8 C-4.99 7.67 -5.98 7.34 -7 7 C-4.69 4.69 -2.38 2.38 0 0 Z " fill="#C4C6C5" transform="translate(287,168)"/>
<path d="M0 0 C0 3 0 3 -2.5 5.6875 C-3.325 6.450625 -4.15 7.21375 -5 8 C-5.66 7.67 -6.32 7.34 -7 7 C-4.69 4.69 -2.38 2.38 0 0 Z " fill="#555555" transform="translate(235,207)"/>
</svg>
