<?xml version="1.0" encoding="UTF-8"?>
<svg xmlns="http://www.w3.org/2000/svg" xmlns:xlink="http://www.w3.org/1999/xlink" width="32px" height="32px" viewBox="0 0 32 32" version="1.1">
<g id="surface1">
<path style=" stroke:none;fill-rule:nonzero;fill:rgb(0%,0%,0%);fill-opacity:1;" d="M 27 26.480469 L 15.085938 26.480469 L 27.355469 14.210938 C 28.328125 13.234375 28.328125 11.652344 27.355469 10.675781 L 21.695312 5.019531 C 20.71875 4.042969 19.136719 4.042969 18.160156 5.019531 L 4.019531 19.160156 C 3.042969 20.136719 3.042969 21.71875 4.019531 22.695312 L 8.65625 27.332031 C 8.75 27.425781 8.875 27.480469 9.007812 27.480469 L 27 27.480469 C 27.277344 27.480469 27.5 27.253906 27.5 26.980469 C 27.5 26.703125 27.277344 26.480469 27 26.480469 Z M 18.867188 5.726562 C 19.453125 5.140625 20.402344 5.140625 20.988281 5.726562 L 26.648438 11.382812 C 27.230469 11.96875 27.230469 12.917969 26.648438 13.503906 L 19.929688 20.222656 L 12.152344 12.445312 Z M 13.671875 26.480469 L 9.214844 26.480469 L 4.726562 21.988281 C 4.140625 21.402344 4.140625 20.453125 4.726562 19.867188 L 11.445312 13.152344 L 19.222656 20.929688 Z M 13.671875 26.480469 "/>
</g>
</svg>
