<svg width="437" height="372" viewBox="0 0 437 372" fill="none" xmlns="http://www.w3.org/2000/svg">
<path d="M8.33333 8.33333L5 11.5333V61V110.467L8.33333 113.667L11.5333 117H97C180.6 117 182.333 117 185 114.333C188.333 111 188.333 108.733 185.267 105.933C183 103.933 175.267 103.667 100.6 103.667H18.3333V61V18.3333H75H131.667V51.4C131.667 86.0667 131.933 87.6667 137.667 87.6667C143.533 87.6667 143.667 86.3333 143.667 47.4C143.667 12.0667 143.533 10.2 141 7.66666C138.467 5.13333 136.6 4.99999 75 4.99999H11.5333L8.33333 8.33333Z" fill="black" stroke="black" stroke-width="10"/>
<path d="M360.867 60.3334C338.733 67.4 332.2 96.4667 349.133 112.6C364.467 127.133 390.2 122.333 399.133 103.133C410.6 78.6 386.867 52.0667 360.867 60.3334Z" fill="#1AD6C7" stroke="#1AD6C7" stroke-width="10"/>
<path d="M285.667 71.1333C284.2 71.3999 278.867 72.7333 273.8 73.7999C247.133 79.9333 220.867 96.7333 194.333 124.6C172.333 147.8 130.467 190.067 123.667 196.2C104.6 213.133 89.8 219.933 71.5333 220.067C60.8666 220.2 59.2666 219.933 49.9333 215.267C38.7333 209.667 29.1333 200.333 24.4666 190.333C22.3333 185.533 21.6666 181.667 21.6666 171.533C21.6666 159.4 21.9333 158.333 26.7333 148.867C29.4 143.4 31.6666 138.067 31.6666 137C31.6666 133.8 28.8666 131.667 24.7333 131.667C21.6666 131.667 20.2 132.867 17 137.8C9.93331 149 7.26664 159.533 7.93331 174.2C8.33331 185.533 8.99998 188.333 12.7333 195.933C23.1333 217.133 42.6 230.733 66.3333 233.533C76.4666 234.733 92.3333 231.533 104.067 225.8C122.6 217 130.867 209.4 193.667 144.733C230.867 106.467 248.867 93.9333 276.867 86.7333C287.8 84.0666 292.2 83.5333 306.333 83.9333C315.533 84.0666 323.8 83.7999 324.733 83.2666C327 81.7999 326.733 74.9999 324.2 72.9999C322.2 71.2666 291.4 69.7999 285.667 71.1333Z" fill="black" stroke="black" stroke-width="10"/>
<path d="M397.667 131.133C395.133 133.667 395.133 133.533 401.667 149.267C408.733 166.6 410.733 177.4 409.933 195.667C409.133 213 407 222.2 400.333 236.6C395.667 246.867 395.533 250.333 400.2 252.067C404.467 253.667 407.8 251.267 411.533 243.8C427.533 211.8 427.8 171 412.067 139.667C407.933 131.4 406.333 129.533 403.533 129.267C401.533 129 399 129.8 397.667 131.133Z" fill="black" stroke="black" stroke-width="10"/>
<path d="M133.133 132.2C132.067 133.4 131.667 139.133 131.933 149.133C132.333 163.933 132.467 164.333 135.4 164.733C137.133 165 139.667 164.2 141.133 162.867C143.267 160.867 143.667 158.733 143.667 147C143.667 138.333 143.133 133 142.067 131.933C139.933 129.8 135 129.933 133.133 132.2Z" fill="black" stroke="black" stroke-width="10"/>
<path d="M241.933 179.4C239.933 181.667 239.667 188.2 239.667 245.933C239.667 306.2 239.8 310.067 242.067 312.067C244.2 314.067 248.733 314.333 278.6 314.333C315.933 314.333 315.533 314.467 312.2 306.6L310.467 302.333H281.667H253L253.267 245.933L253.667 189.667L310.067 189.267L366.333 189V214.333C366.333 238.2 366.467 239.8 369.133 242.467C370.6 243.933 373.133 245 374.733 244.733C377.667 244.333 377.667 244.067 378.067 212.467C378.333 190.2 377.933 180.067 376.867 178.867C375.667 177.267 363.8 177 309.667 177C247.8 177 243.933 177.133 241.933 179.4Z" fill="black" stroke="black" stroke-width="10"/>
<path d="M134.067 223.8C131.933 225 131.667 228.067 131.667 256.333C131.667 285.8 131.8 287.667 134.2 289C135.933 289.8 152.6 290.333 179.533 290.333C222.067 290.333 222.2 290.333 224.2 287.4C226.867 283.533 226.867 282.867 223.667 279.667C221.133 277.133 219.267 277 182.333 277H143.667V251.8C143.667 230.6 143.267 226.2 141.533 224.467C139.133 222.067 137.267 221.8 134.067 223.8Z" fill="black" stroke="black" stroke-width="10"/>
<path d="M310.067 245.133C306.333 247.267 307.133 252.867 313.8 270.6C317.133 279.667 325.933 303.533 333.267 323.667C340.467 343.8 347.4 361.667 348.467 363.267C350.6 366.6 356.2 367.4 357.933 364.6C358.467 363.8 363 352.467 367.8 339.667L376.6 316.333L401.8 309.267C415.667 305.4 427.933 301.8 429 301.133C431.533 299.8 432.333 293.8 430.067 292.067C426.6 289.4 317.933 243.667 315.133 243.667C313.667 243.667 311.267 244.333 310.067 245.133Z" fill="black" stroke="black" stroke-width="10"/>
</svg>
