<svg width="442" height="377" viewBox="0 0 442 377" fill="none" xmlns="http://www.w3.org/2000/svg">
<path d="M10.8333 10.8333L7.5 14.0333V63.5V112.967L10.8333 116.167L14.0333 119.5H99.5C183.1 119.5 184.833 119.5 187.5 116.833C190.833 113.5 190.833 111.233 187.767 108.433C185.5 106.433 177.767 106.167 103.1 106.167H20.8333V63.5V20.8333H77.5H134.167V53.9C134.167 88.5667 134.433 90.1667 140.167 90.1667C146.033 90.1667 146.167 88.8333 146.167 49.9C146.167 14.5667 146.033 12.7 143.5 10.1667C140.967 7.63333 139.1 7.49999 77.5 7.49999H14.0333L10.8333 10.8333Z" fill="#EEEEEE" stroke="#EEEEEE" stroke-width="15"/>
<path d="M363.367 62.8334C341.233 69.9 334.7 98.9667 351.633 115.1C366.967 129.633 392.7 124.833 401.633 105.633C413.1 81.1 389.367 54.5667 363.367 62.8334Z" fill="#1AD6C7" stroke="#1AD6C7" stroke-width="15"/>
<path d="M288.167 73.6333C286.7 73.8999 281.367 75.2333 276.3 76.2999C249.633 82.4333 223.367 99.2333 196.833 127.1C174.833 150.3 132.967 192.567 126.167 198.7C107.1 215.633 92.3 222.433 74.0333 222.567C63.3666 222.7 61.7666 222.433 52.4333 217.767C41.2333 212.167 31.6333 202.833 26.9666 192.833C24.8333 188.033 24.1666 184.167 24.1666 174.033C24.1666 161.9 24.4333 160.833 29.2333 151.367C31.9 145.9 34.1666 140.567 34.1666 139.5C34.1666 136.3 31.3666 134.167 27.2333 134.167C24.1666 134.167 22.7 135.367 19.5 140.3C12.4333 151.5 9.76664 162.033 10.4333 176.7C10.8333 188.033 11.5 190.833 15.2333 198.433C25.6333 219.633 45.1 233.233 68.8333 236.033C78.9666 237.233 94.8333 234.033 106.567 228.3C125.1 219.5 133.367 211.9 196.167 147.233C233.367 108.967 251.367 96.4333 279.367 89.2333C290.3 86.5666 294.7 86.0333 308.833 86.4333C318.033 86.5666 326.3 86.2999 327.233 85.7666C329.5 84.2999 329.233 77.4999 326.7 75.4999C324.7 73.7666 293.9 72.2999 288.167 73.6333Z" fill="#EEEEEE" stroke="#EEEEEE" stroke-width="15"/>
<path d="M400.167 133.633C397.633 136.167 397.633 136.033 404.167 151.767C411.233 169.1 413.233 179.9 412.433 198.167C411.633 215.5 409.5 224.7 402.833 239.1C398.167 249.367 398.033 252.833 402.7 254.567C406.967 256.167 410.3 253.767 414.033 246.3C430.033 214.3 430.3 173.5 414.567 142.167C410.433 133.9 408.833 132.033 406.033 131.767C404.033 131.5 401.5 132.3 400.167 133.633Z" fill="#EEEEEE" stroke="#EEEEEE" stroke-width="15"/>
<path d="M135.633 134.7C134.567 135.9 134.167 141.633 134.433 151.633C134.833 166.433 134.967 166.833 137.9 167.233C139.633 167.5 142.167 166.7 143.633 165.367C145.767 163.367 146.167 161.233 146.167 149.5C146.167 140.833 145.633 135.5 144.567 134.433C142.433 132.3 137.5 132.433 135.633 134.7Z" fill="#EEEEEE" stroke="#EEEEEE" stroke-width="15"/>
<path d="M244.433 181.9C242.433 184.167 242.167 190.7 242.167 248.433C242.167 308.7 242.3 312.567 244.567 314.567C246.7 316.567 251.233 316.833 281.1 316.833C318.433 316.833 318.033 316.967 314.7 309.1L312.967 304.833H284.167H255.5L255.767 248.433L256.167 192.167L312.567 191.767L368.833 191.5V216.833C368.833 240.7 368.967 242.3 371.633 244.967C373.1 246.433 375.633 247.5 377.233 247.233C380.167 246.833 380.167 246.567 380.567 214.967C380.833 192.7 380.433 182.567 379.367 181.367C378.167 179.767 366.3 179.5 312.167 179.5C250.3 179.5 246.433 179.633 244.433 181.9Z" fill="#EEEEEE" stroke="#EEEEEE" stroke-width="15"/>
<path d="M136.567 226.3C134.433 227.5 134.167 230.567 134.167 258.833C134.167 288.3 134.3 290.167 136.7 291.5C138.433 292.3 155.1 292.833 182.033 292.833C224.567 292.833 224.7 292.833 226.7 289.9C229.367 286.033 229.367 285.367 226.167 282.167C223.633 279.633 221.767 279.5 184.833 279.5H146.167V254.3C146.167 233.1 145.767 228.7 144.033 226.967C141.633 224.567 139.767 224.3 136.567 226.3Z" fill="#EEEEEE" stroke="#EEEEEE" stroke-width="15"/>
<path d="M312.567 247.633C308.833 249.767 309.633 255.367 316.3 273.1C319.633 282.167 328.433 306.033 335.767 326.167C342.967 346.3 349.9 364.167 350.967 365.767C353.1 369.1 358.7 369.9 360.433 367.1C360.967 366.3 365.5 354.967 370.3 342.167L379.1 318.833L404.3 311.767C418.167 307.9 430.433 304.3 431.5 303.633C434.033 302.3 434.833 296.3 432.567 294.567C429.1 291.9 320.433 246.167 317.633 246.167C316.167 246.167 313.767 246.833 312.567 247.633Z" fill="#EEEEEE" stroke="#EEEEEE" stroke-width="15"/>
</svg>
