<?xml version="1.0" encoding="UTF-8"?>
<svg xmlns="http://www.w3.org/2000/svg" width="24" height="24" viewBox="0 0 24 24" fill="none">
  <!-- Tilted bucket with paint pouring -->
  <g transform="rotate(30, 12, 12)">
    <!-- Bucket body -->
    <path d="M6 9h12l-1.5 10H7.5L6 9z" fill="white" stroke="#333" stroke-width="1"/>
    <!-- Bucket rim -->
    <ellipse cx="12" cy="9" rx="6" ry="1.8" fill="white" stroke="#333" stroke-width="1"/>
  </g>
  <!-- Paint flowing out - colorful (right side) -->
  <path d="M18 8c2 1 3 3 4 6c0.5 2-0.5 4-2 5c-1 0.5-2 0-2.5-1c-0.3-1 0-2 0.5-3c0.8-2 1.5-4 0-7z" fill="#FF6B6B" stroke="#333" stroke-width="0.8"/>
  <path d="M19 10c1 0.5 1.5 2 2 4c0.3 1.5-0.3 2.5-1 3c-0.5 0.3-1 0-1.2-0.5c-0.2-0.8 0-1.5 0.2-2.5c0.4-1.5 0.5-2.5 0-4z" fill="#4ECDC4" stroke="none"/>
</svg>
