<?xml version="1.0" standalone="no"?>
<!DOCTYPE svg PUBLIC "-//W3C//DTD SVG 20010904//EN"
 "http://www.w3.org/TR/2001/REC-SVG-20010904/DTD/svg10.dtd">
<svg version="1.0" xmlns="http://www.w3.org/2000/svg"
 width="557.000000pt" height="417.000000pt" viewBox="0 0 557.000000 417.000000"
 preserveAspectRatio="xMidYMid meet">

<g transform="translate(0.000000,417.000000) scale(0.100000,-0.100000)"
fill="#000000" stroke="none">
<path d="M1163 3300 c-12 -5 -26 -18 -32 -29 -7 -13 -11 -146 -11 -386 l0
-366 25 -24 24 -25 639 0 c622 0 639 1 657 20 23 26 13 68 -21 80 -14 6 -81
10 -150 10 l-124 0 0 339 c0 319 -1 340 -19 362 l-19 24 -474 2 c-261 1 -483
-2 -495 -7z"/>
<path d="M3742 2896 c-90 -30 -154 -102 -173 -197 -30 -148 88 -289 240 -289
80 0 122 15 173 60 136 119 108 329 -55 412 -51 25 -130 32 -185 14z"/>
<path d="M3185 2784 c-219 -45 -360 -112 -513 -242 -44 -37 -202 -194 -352
-349 -150 -155 -300 -304 -334 -331 -237 -192 -473 -201 -637 -25 -101 107
-117 251 -44 396 l39 77 -21 28 c-57 76 -135 6 -178 -163 -52 -204 44 -423
231 -522 212 -112 437 -84 659 84 45 34 204 189 359 350 354 364 413 416 561
490 112 57 276 93 420 93 72 0 95 14 95 59 0 52 -24 61 -151 60 -63 -1 -123
-3 -134 -5z"/>
<path d="M4029 2359 c-25 -25 -23 -33 25 -149 47 -114 70 -249 61 -360 -9
-105 -35 -212 -69 -279 -34 -65 -34 -105 -1 -127 58 -38 101 10 154 171 74
223 59 457 -44 689 -34 77 -83 98 -126 55z"/>
<path d="M2072 2347 c-6 -7 -11 -53 -12 -102 -2 -123 -2 -122 16 -140 20 -19
62 -13 82 12 15 21 17 196 2 224 -12 22 -71 27 -88 6z"/>
<path d="M2918 2012 c-70 -6 -68 9 -68 -512 0 -387 2 -469 14 -486 13 -18 30
-19 278 -22 262 -3 308 0 308 18 0 6 -32 101 -72 213 -39 111 -71 216 -71 234
2 75 86 142 161 128 20 -4 115 -40 211 -81 96 -41 183 -76 195 -77 21 -2 21 1
24 263 1 146 0 275 -3 287 -3 13 -15 25 -28 28 -24 6 -885 12 -949 7z"/>
<path d="M2077 1662 c-14 -15 -17 -49 -17 -237 l-1 -220 26 -22 c26 -23 29
-23 336 -23 296 0 310 1 329 20 25 25 25 41 1 71 -19 24 -20 24 -298 29 l-278
5 -5 188 c-4 152 -8 190 -20 197 -24 15 -55 12 -73 -8z"/>
<path d="M3400 1481 c-5 -11 -10 -25 -10 -32 0 -7 43 -128 95 -269 51 -141
119 -328 151 -416 31 -87 61 -165 66 -171 13 -17 53 -17 66 0 5 6 37 86 71
177 34 91 65 171 70 179 5 7 93 37 196 66 103 29 194 60 202 68 30 29 9 60
-59 89 -517 223 -775 328 -804 328 -23 0 -37 -6 -44 -19z"/>
</g>
</svg>
