<svg xmlns="http://www.w3.org/2000/svg" viewBox="0 0 570 426" width="570" height="426">
<g transform="translate(0,426) scale(0.1,-0.1)" fill="#000000" stroke="none">
<path d="M1335 3445 l-25 -24 0 -371 0 -371 25 -24 24 -25 641 0 c627 0 640 0 660 20 25 25 25 42 2 63 -17 15 -75 17 -635 17 l-617 0 0 320 0 320 425 0 425 0 0 -248 c0 -260 2 -272 45 -272 44 0 45 10 45 302 0 265 -1 279 -20 298 -19 19 -33 20 -495 20 l-476 0 -24 -25z"/>
<path d="M3979 3055 c-166 -53 -215 -271 -88 -392 115 -109 308 -73 375 71 86 184 -92 383 -287 321z"/>
<path d="M3415 2974 c-11 -2 -51 -12 -89 -20 -200 -46 -397 -172 -596 -381 -165 -174 -479 -491 -530 -537 -143 -127 -254 -178 -391 -179 -80 -1 -92 1 -162 36 -84 42 -156 112 -191 187 -16 36 -21 65 -21 141 0 91 2 99 38 170 20 41 37 81 37 89 0 24 -21 40 -52 40 -23 0 -34 -9 -58 -46 -53 -84 -73 -163 -68 -273 3 -85 8 -106 36 -163 78 -159 224 -261 402 -282 76 -9 195 15 283 58 139 66 201 123 672 608 279 287 414 381 624 435 82 20 115 24 221 21 69 -1 131 1 138 5 17 11 15 62 -4 77 -15 13 -246 24 -289 14z"/>
<path d="M4255 2524 c-19 -19 -19 -18 30 -136 53 -130 68 -211 62 -348 -6 -130 -22 -199 -72 -307 -35 -77 -36 -103 -1 -116 32 -12 57 6 85 62 120 240 122 546 4 781 -31 62 -43 76 -64 78 -15 2 -34 -4 -44 -14z"/>
<path d="M2271 2516 c-8 -9 -11 -52 -9 -127 3 -111 4 -114 26 -117 13 -2 32 4 43 14 16 15 19 31 19 119 0 65 -4 105 -12 113 -16 16 -53 15 -67 -2z"/>
<path d="M3087 2162 c-15 -17 -17 -66 -17 -499 0 -452 1 -481 18 -496 16 -15 50 -17 274 -17 280 0 277 -1 252 58 l-13 32 -216 0 -215 0 2 423 3 422 423 3 422 2 0 -190 c0 -179 1 -191 21 -211 11 -11 30 -19 42 -17 22 3 22 5 25 242 2 167 -1 243 -9 252 -9 12 -98 14 -504 14 -464 0 -493 -1 -508 -18z"/>
<path d="M2278 1829 c-16 -9 -18 -32 -18 -244 0 -221 1 -235 19 -245 13 -6 138 -10 340 -10 319 0 320 0 335 22 20 29 20 34 -4 58 -19 19 -33 20 -310 20 l-290 0 0 189 c0 159 -3 192 -16 205 -18 18 -32 20 -56 5z"/>
<path d="M3598 1669 c-28 -16 -22 -58 28 -191 25 -68 91 -247 146 -398 54 -151 106 -285 114 -297 16 -25 58 -31 71 -10 4 6 38 91 74 187 l66 175 189 53 c104 29 196 56 204 61 19 10 25 55 8 68 -26 20 -841 363 -862 363 -11 0 -29 -5 -38 -11z"/>
</g>
</svg>
